<svg width="1920" height="400" viewBox="0 0 1920 400" fill="none" xmlns="http://www.w3.org/2000/svg">
<g clip-path="url(#clip0_320_883)">
<path d="M-10 354.534L268.067 84.5527L543.978 101.59L822.044 235.27L1097.96 289.004L1376.02 317.837L1651.93 304.731L1930 372.882V404.336H1651.93H1376.02H1097.96H822.044H543.978H268.067H-10V354.534Z" fill="#EDF4E7"/>
<path d="M-10 349.413L268.067 179.412L543.978 157.182L822.044 320.644L1097.96 324.567L1376.02 157.182L1651.93 196.413L1930 214.72V404.336H1651.93H1376.02H1097.96H822.044H543.978H268.067H-10V349.413Z" fill="#DBEACF"/>
<path d="M-10 287.63L268.067 241.734L543.978 401.713L822.044 351.884L1097.96 222.065L1376.02 275.828L1651.93 370.242L1930 160.434V404.336H1651.93H1376.02H1097.96H822.044H543.978H268.067H-10V287.63Z" fill="#C9DFB7"/>
<path d="M-10 202.999L268.067 197.77H543.978L822.044 274.905L1097.96 242.221L1376.02 289.286L1651.93 188.618L1930 331.123V404.336H1651.93H1376.02H1097.96H822.044H543.978H268.067H-10V202.999Z" fill="#B7D5A0"/>
<path d="M-10 307.482L268.067 236.804L543.978 329.732L822.044 397.792L1097.96 281.305L1376.02 244.657L1651.93 227.642L1930 307.482V404.336H1651.93H1376.02H1097.96H822.044H543.978H268.067H-10V307.482Z" fill="#A5CA89"/>
<path d="M-10 300.597L268.067 378.073L543.978 370.194L822.044 242.818L1097.96 290.092L1376.02 362.315L1651.93 347.87L1930 322.921V404.336H1651.93H1376.02H1097.96H822.044H543.978H268.067H-10V300.597Z" fill="#93BF72"/>
<path d="M-10 375.561L268.067 346.785L543.978 328.473L822.044 383.408L1097.96 353.325L1376.02 352.017L1651.93 246.071L1930 285.31V404.336H1651.93H1376.02H1097.96H822.044H543.978H268.067H-10V375.561Z" fill="#80B55B"/>
<path d="M-10 340.25L268.067 369.023L543.978 284.011L822.044 340.25L1097.96 367.715L1376.02 379.486L1651.93 325.863L1930 346.789V404.336H1651.93H1376.02H1097.96H822.044H543.978H268.067H-10V340.25Z" fill="#6CAA44"/>
<path d="M-10 315.447L268.067 358.585L543.978 341.591L822.044 388.65L1097.96 384.728L1376.02 362.506L1651.93 363.813L1930 399.107V404.336H1651.93H1376.02H1097.96H822.044H543.978H268.067H-10V315.447Z" fill="#58A02A"/>
<path d="M-10 394.146L268.067 357.724L543.978 383.74L822.044 396.748L1097.96 346.016L1376.02 348.618L1651.93 338.211L1930 377.236V403.252H1651.93H1376.02H1097.96H822.044H543.978H268.067H-10V394.146Z" fill="#387E01"/>
</g>
<defs>
<clipPath id="clip0_320_883">
<rect width="1920" height="400" fill="white"/>
</clipPath>
</defs>
</svg>
